<svg width="50" height="50" fill="none" xmlns="http://www.w3.org/2000/svg"><path d="M22.07 25h1.465v-1.465a1.466 1.466 0 00-2.93 0c0 .808.657 1.465 1.465 1.465zm1.465 2.93h-4.394c-.809 0-1.465.656-1.465 1.465v1.464h5.86v-2.93zm5.86-4.395a1.466 1.466 0 00-2.93 0V25h1.465c.808 0 1.465-.657 1.465-1.465zm-5.86 10.255h-2.93v5.858h8.79V33.79h-2.93v1.465a1.464 1.464 0 11-2.93 0V33.79z" fill="#fff"/><path d="M0 44.043a4.4 4.4 0 004.395 4.395h41.21A4.4 4.4 0 0050 44.043V16.211H0v27.832zm14.746-14.648c0-2.026 1.385-3.719 3.252-4.226a4.357 4.357 0 01-.322-1.634 4.4 4.4 0 014.394-4.394c1.13 0 2.15.44 2.93 1.143a4.361 4.361 0 012.93-1.143 4.4 4.4 0 014.394 4.394c0 .578-.118 1.128-.322 1.634 1.867.507 3.252 2.2 3.252 4.226v2.93c0 .809-.655 1.464-1.465 1.464h-1.465v7.324c0 .81-.655 1.465-1.465 1.465H19.141c-.81 0-1.465-.655-1.465-1.465V33.79H16.21c-.81 0-1.465-.655-1.465-1.465v-2.93z" fill="#fff"/><path d="M32.324 29.395c0-.809-.656-1.465-1.465-1.465h-4.394v2.93h5.86v-1.465zM45.605 1.563H4.395A4.4 4.4 0 000 5.957v7.324h50V5.957a4.4 4.4 0 00-4.395-4.394zM7.322 10.351a1.465 1.465 0 110-2.93 1.465 1.465 0 010 2.93zm5.957 0a1.465 1.465 0 110-2.93 1.465 1.465 0 010 2.93zm5.859 0a1.465 1.465 0 110-2.93 1.465 1.465 0 010 2.93zm23.538 0h-8.887a1.464 1.464 0 110-2.93h8.887a1.464 1.464 0 110 2.93z" fill="#fff"/></svg>