<svg width="18" height="18" fill="none" xmlns="http://www.w3.org/2000/svg"><path d="M9 1.5c2.038 0 2.292.008 3.091.045.8.038 1.343.163 1.822.349.495.19.912.448 1.329.865.38.374.676.828.864 1.329.185.477.311 1.022.349 1.82.035.8.045 1.054.045 3.092 0 2.038-.008 2.292-.045 3.091-.037.8-.163 1.343-.349 1.822-.188.5-.483.954-.865 1.329a3.687 3.687 0 01-1.329.864c-.477.185-1.022.311-1.82.349-.8.035-1.054.045-3.092.045-2.038 0-2.292-.008-3.091-.045-.8-.037-1.343-.163-1.821-.349a3.668 3.668 0 01-1.33-.865 3.678 3.678 0 01-.864-1.329c-.186-.477-.311-1.022-.349-1.82C1.51 11.291 1.5 11.037 1.5 9c0-2.038.008-2.292.045-3.091.038-.8.163-1.343.349-1.821.187-.501.483-.955.865-1.33a3.673 3.673 0 011.329-.864c.478-.186 1.021-.311 1.82-.349C6.708 1.51 6.963 1.5 9 1.5zm0 3.75a3.75 3.75 0 100 7.5 3.75 3.75 0 000-7.5zm4.875-.188a.938.938 0 10-1.875 0 .938.938 0 001.875 0zM9 6.75a2.25 2.25 0 110 4.5 2.25 2.25 0 010-4.5z" fill="#fff"/></svg>