<svg width="50" height="50" fill="none" xmlns="http://www.w3.org/2000/svg"><g clip-path="url(#clip0_42_154)" fill="#fff"><path d="M15.375 22.276c2.29 5.052 7.192 7.252 9.625 7.252 1.6 0 4.267-.952 6.557-3.04a38.718 38.718 0 01-3.4.083 2.79 2.79 0 01-1.7.58H24.42a2.788 2.788 0 01-2.785-2.785 2.788 2.788 0 012.785-2.785h2.038c.736 0 1.425.287 1.935.782l.501.003c2.63 0 4.364-.241 5.499-.532a3.042 3.042 0 01-.228-1.159v-7.061c0-.735.273-1.439.744-1.983-.251-1.958-.708-3.453-1.39-4.556-1.403-2.273-4.11-3.331-8.52-3.331-3.656 0-6.181.759-7.72 2.32-1.192 1.211-1.882 2.938-2.205 5.547.482.546.76 1.258.76 2.003v7.061a3 3 0 01-.459 1.6z"/><path d="M10.365 22.342h2.444c.92 0 1.667-.746 1.667-1.667v-7.061c0-.615-.334-1.151-.83-1.44.546-5.782 2.778-9.789 11.354-9.789 4.925 0 8 1.264 9.676 3.976.975 1.578 1.444 3.617 1.663 5.822-.488.29-.815.822-.815 1.43v7.062c0 .794.555 1.457 1.298 1.625-1.077.704-3.308 1.424-7.928 1.424-.374 0-.764-.004-1.17-.014a1.426 1.426 0 00-1.266-.77H24.42a1.427 1.427 0 000 2.853h2.038c.476 0 .897-.234 1.155-.592.43.01.85.017 1.256.017 5.206 0 8.517-.889 9.857-2.652.057-.075.11-.15.157-.224h.753c.92 0 1.667-.746 1.667-1.667v-7.061c0-.92-.747-1.667-1.667-1.667h-.92c-.258-2.664-.832-4.932-2.011-6.84C34.582 1.67 30.753 0 25 0s-9.582 1.67-11.705 5.107c-1.18 1.909-1.752 4.176-2.011 6.84h-.92c-.92 0-1.667.746-1.667 1.667v7.061c0 .92.747 1.667 1.668 1.667zm34.789 20.765c-.555-3.447-1.696-7.886-3.984-9.463-1.56-1.076-7.008-3.987-9.335-5.23l-.049-.026a.76.76 0 00-.828.073c-1.22.958-2.556 1.603-3.97 1.918a.761.761 0 00-.547.473L25 34.65l-1.441-3.798a.76.76 0 00-.547-.473c-1.414-.315-2.75-.96-3.97-1.918a.76.76 0 00-.829-.073c-2.3 1.23-7.819 4.201-9.376 5.251-2.636 1.776-3.787 8.198-3.99 9.468a.761.761 0 00.033.375C4.974 43.748 7.392 50 25 50s20.025-6.252 20.12-6.518a.762.762 0 00.034-.375zm-8.199-3.958h-6.974V37.68h6.974v1.47z"/></g><defs><clipPath id="clip0_42_154"><path fill="#fff" d="M0 0h50v50H0z"/></clipPath></defs></svg>