<svg width="220" height="220" fill="none" xmlns="http://www.w3.org/2000/svg"><mask id="a" fill="#fff"><path d="M217.929 110c1.144 0 2.073.928 2.052 2.072a110.003 110.003 0 01-95.426 106.961 2.043 2.043 0 01-2.292-1.803c-.13-1.137.687-2.161 1.821-2.314a105.854 105.854 0 0091.753-102.844c.023-1.144.948-2.072 2.092-2.072z"/></mask><path d="M217.929 110c1.144 0 2.073.928 2.052 2.072a110.003 110.003 0 01-95.426 106.961 2.043 2.043 0 01-2.292-1.803c-.13-1.137.687-2.161 1.821-2.314a105.854 105.854 0 0091.753-102.844c.023-1.144.948-2.072 2.092-2.072z" stroke="#5956E9" stroke-width="8" mask="url(#a)"/><mask id="b" fill="#fff"><path d="M110 2.071c0-1.144.928-2.073 2.072-2.052a110 110 0 01106.961 95.426 2.042 2.042 0 01-1.803 2.292c-1.137.13-2.161-.687-2.314-1.82A105.852 105.852 0 00112.072 4.162 2.103 2.103 0 01110 2.07z"/></mask><path d="M110 2.071c0-1.144.928-2.073 2.072-2.052a110 110 0 01106.961 95.426 2.042 2.042 0 01-1.803 2.292c-1.137.13-2.161-.687-2.314-1.82A105.852 105.852 0 00112.072 4.162 2.103 2.103 0 01110 2.07z" stroke="#5956E9" stroke-width="8" mask="url(#b)"/><mask id="c" fill="#fff"><path d="M2.071 110a2.042 2.042 0 01-2.052-2.072A110 110 0 0195.445.968a2.042 2.042 0 012.292 1.802 2.104 2.104 0 01-1.82 2.314A105.858 105.858 0 004.162 107.929 2.104 2.104 0 012.07 110z"/></mask><path d="M2.071 110a2.042 2.042 0 01-2.052-2.072A110 110 0 0195.445.968a2.042 2.042 0 012.292 1.802 2.104 2.104 0 01-1.82 2.314A105.858 105.858 0 004.162 107.929 2.104 2.104 0 012.07 110z" stroke="#5956E9" stroke-width="8" mask="url(#c)"/><mask id="d" fill="#fff"><path d="M110 217.929a2.042 2.042 0 01-2.072 2.052A110.002 110.002 0 01.968 124.555a2.042 2.042 0 011.802-2.292c1.137-.13 2.161.687 2.314 1.821a105.86 105.86 0 00102.844 91.753c1.144.023 2.072.948 2.072 2.092z"/></mask><path d="M110 217.929a2.042 2.042 0 01-2.072 2.052A110.002 110.002 0 01.968 124.555a2.042 2.042 0 011.802-2.292c1.137-.13 2.161.687 2.314 1.821a105.86 105.86 0 00102.844 91.753c1.144.023 2.072.948 2.072 2.092z" stroke="#5956E9" stroke-width="8" mask="url(#d)"/></svg>