<svg width="18" height="18" fill="none" xmlns="http://www.w3.org/2000/svg"><path d="M16.622 4.242c-.573.253-1.18.42-1.802.494A3.147 3.147 0 0016.2 3a6.269 6.269 0 01-1.992.761 3.137 3.137 0 00-5.345 2.86 8.905 8.905 0 01-6.465-3.277 3.136 3.136 0 00.97 4.188 3.126 3.126 0 01-1.42-.392v.039a3.139 3.139 0 002.517 3.076 3.16 3.16 0 01-1.418.054 3.139 3.139 0 002.93 2.179 6.296 6.296 0 01-4.643 1.299 8.872 8.872 0 004.808 1.41c5.77 0 8.925-4.78 8.925-8.925 0-.135-.004-.272-.01-.405a6.372 6.372 0 001.565-1.624v-.001z" fill="#fff"/></svg>