<svg width="50" height="50" fill="none" xmlns="http://www.w3.org/2000/svg"><g clip-path="url(#clip0_42_141)" fill="#fff"><path d="M48.535 0h-5.957c-.81 0-1.465.655-1.465 1.465V2.93H29.125C28.518 1.228 26.907 0 25 0s-3.518 1.228-4.125 2.93H8.887V1.465C8.887.655 8.232 0 7.422 0H1.465C.655 0 0 .655 0 1.465v5.86c0 .809.655 1.464 1.465 1.464h5.957c.81 0 1.465-.655 1.465-1.465V5.84h6.016c-5.084 3.176-8.436 8.754-8.837 15-1.756.577-3.039 2.213-3.039 4.16a4.4 4.4 0 004.395 4.395A4.4 4.4 0 0011.816 25c0-1.87-1.177-3.458-2.826-4.093.5-6.965 5.36-12.836 12.12-14.51.732 1.413 2.192 2.392 3.89 2.392s3.158-.979 3.89-2.393c6.76 1.675 11.62 7.546 12.12 14.511-1.649.635-2.826 2.224-2.826 4.093a4.4 4.4 0 004.394 4.395A4.4 4.4 0 0046.973 25c0-1.947-1.282-3.583-3.04-4.159-.4-6.247-3.752-11.806-8.836-14.982h6.016v1.465c0 .81.656 1.465 1.465 1.465h5.957c.81 0 1.465-.655 1.465-1.465v-5.86C50 .656 49.345 0 48.535 0zM34.966 48.183c-.766-2.344-2.974-4.14-5.572-4.14h-8.788c-2.598 0-4.806 1.796-5.572 4.14-.295.904.474 1.817 1.425 1.817h17.082c.951 0 1.72-.913 1.425-1.817z"/><path d="M37.938 30.047l-11.473-17.21v13.898c1.701.607 2.93 2.217 2.93 4.125A4.4 4.4 0 0125 35.254a4.4 4.4 0 01-4.395-4.394c0-1.908 1.229-3.518 2.93-4.125V12.838L12.062 30.047c-.387.58-.31 1.355.184 1.848 2.689 2.69 4.408 6.154 5.071 9.87a8.725 8.725 0 013.288-.652h8.79a8.72 8.72 0 013.288.652c.663-3.717 2.382-7.18 5.071-9.87a1.464 1.464 0 00.184-1.848z"/><path d="M25 29.395a1.466 1.466 0 000 2.93 1.466 1.466 0 000-2.93z"/></g><defs><clipPath id="clip0_42_141"><path fill="#fff" d="M0 0h50v50H0z"/></clipPath></defs></svg>